<svg width="100" height="100" viewBox="0 0 100 100" fill="none" xmlns="http://www.w3.org/2000/svg">
<circle cx="50" cy="50" r="50" fill="#28785A"/>
<path d="M47.464 40.672C47.464 41.824 47.6133 42.912 47.912 43.936C48.2107 44.96 48.616 45.856 49.128 46.624C49.6827 47.392 50.3013 48.0107 50.984 48.48C51.7093 48.9067 52.4773 49.12 53.288 49.12C54.056 49.12 54.7813 48.9067 55.464 48.48C56.1893 48.0107 56.808 47.392 57.32 46.624C57.8747 45.856 58.3013 44.96 58.6 43.936C58.9413 42.912 59.112 41.824 59.112 40.672C59.112 39.52 58.9627 38.432 58.664 37.408C58.3653 36.3413 57.9387 35.424 57.384 34.656C56.872 33.888 56.2533 33.2907 55.528 32.864C54.8453 32.3947 54.0987 32.16 53.288 32.16C52.4773 32.16 51.7093 32.3947 50.984 32.864C50.3013 33.2907 49.6827 33.888 49.128 34.656C48.616 35.424 48.2107 36.32 47.912 37.344C47.6133 38.368 47.464 39.4773 47.464 40.672ZM36.456 44.32C36.456 42.9547 36.264 41.76 35.88 40.736C35.5387 39.6693 35.1547 38.7093 34.728 37.856C34.3013 36.96 33.896 36.1493 33.512 35.424C33.1707 34.656 33 33.8667 33 33.056C33 30.752 34.2587 29.6 36.776 29.6H54.248C59.4107 29.6 63.4213 30.5813 66.28 32.544C69.1813 34.464 70.632 37.152 70.632 40.608C70.632 44.1493 69.2027 46.88 66.344 48.8C63.528 50.72 59.496 51.68 54.248 51.68C51.7733 51.68 50.0027 51.936 48.936 52.448C47.8693 52.96 47.336 53.792 47.336 54.944C47.336 55.84 47.5067 56.6933 47.848 57.504C48.232 58.3147 48.6373 59.104 49.064 59.872C49.4907 60.64 49.8747 61.408 50.216 62.176C50.6 62.944 50.792 63.7333 50.792 64.544C50.792 66.848 49.448 68 46.76 68H37.032C34.344 68 33 66.848 33 64.544C33 63.7333 33.1707 62.9653 33.512 62.24C33.896 61.472 34.3013 60.6613 34.728 59.808C35.1547 58.912 35.5387 57.952 35.88 56.928C36.264 55.8613 36.456 54.6453 36.456 53.28V44.32Z" fill="white"/>
</svg>
